<svg width="30" height="30" viewBox="0 0 30 30" fill="none" xmlns="http://www.w3.org/2000/svg">
<path d="M14.9996 2.9407C14.9996 1.79036 15.9371 0.842101 17.075 1.01092C19.2038 1.32676 21.2421 2.12588 23.0288 3.35814C25.3897 4.98645 27.1998 7.29412 28.2188 9.97498C29.2379 12.6558 29.4178 15.5832 28.7346 18.3687C28.0514 21.1541 26.5375 23.666 24.3937 25.5712C22.2499 27.4763 19.5774 28.6846 16.731 29.0357C13.8846 29.3868 10.9986 28.8642 8.45609 27.5372C5.91354 26.2102 3.83455 24.1415 2.49493 21.6056C1.48115 19.6865 0.927074 17.5684 0.863567 15.4172C0.829621 14.2674 1.88147 13.4478 3.02385 13.583C4.16623 13.7181 4.95992 14.7611 5.06448 15.9066C5.18364 17.2123 5.55963 18.4885 6.17835 19.6598C7.12336 21.4487 8.58996 22.9081 10.3836 23.8442C12.1772 24.7803 14.213 25.149 16.221 24.9013C18.229 24.6536 20.1142 23.8012 21.6265 22.4573C23.1388 21.1133 24.2068 19.3413 24.6888 17.3764C25.1707 15.4114 25.0438 13.3463 24.3249 11.4552C23.606 9.56399 22.3291 7.93608 20.6636 6.7874C19.5732 6.03534 18.3499 5.51199 17.0674 5.24024C15.942 5.0018 14.9996 4.09105 14.9996 2.9407Z" fill="#F4C967"/>
<path d="M27.0555 15C28.2077 15 29.1575 14.0609 28.9881 12.9213C28.6946 10.946 27.9847 9.04711 26.8966 7.35394C25.4307 5.07317 23.3402 3.26181 20.874 2.13562C18.4078 1.00943 15.6698 0.615889 12.9862 1.00187C10.3027 1.38784 7.78658 2.53707 5.73772 4.31266C3.68886 6.08824 2.19356 8.41535 1.42995 11.0168C0.666333 13.6182 0.666585 16.3843 1.43067 18.9856C2.19476 21.5869 3.69048 23.9137 5.73967 25.6889C7.26092 27.0068 9.03958 27.9794 10.953 28.5508C12.057 28.8805 13.1216 28.0739 13.2854 26.9334V26.9334C13.4492 25.7929 12.6445 24.7558 11.5629 24.3586C10.436 23.9448 9.38766 23.3288 8.47167 22.5353C7.02707 21.2838 5.97264 19.6435 5.43399 17.8097C4.89533 15.9759 4.89515 14.0259 5.43347 12.192C5.97179 10.358 7.02592 8.71752 8.4703 7.4658C9.91467 6.21407 11.6884 5.40391 13.5802 5.13181C15.4721 4.85971 17.4022 5.13714 19.1408 5.93106C20.8794 6.72499 22.3532 8.00193 23.3865 9.60979C24.0417 10.6293 24.5024 11.7546 24.7518 12.9289C24.9911 14.0559 25.9033 15 27.0555 15V15Z" fill="#6F91EE"/>
<path d="M23.957 21.9373C23.957 19.7058 25.7661 17.8967 27.9976 17.8967V27.3248C27.9976 28.4406 27.0931 29.3451 25.9773 29.3451C24.8616 29.3451 23.957 28.4406 23.957 27.3248V21.9373Z" fill="#F4C967"/>
</svg>
