<svg width="20" height="20" viewBox="0 0 20 20" fill="none" xmlns="http://www.w3.org/2000/svg">
<path d="M13.2582 14.3189L4.77289 5.83367C4.63345 5.69237 4.55527 5.50185 4.55527 5.30334C4.55527 5.10482 4.63345 4.9143 4.77289 4.77301C4.91419 4.63357 5.10471 4.55538 5.30322 4.55538C5.50173 4.55538 5.69226 4.63357 5.83355 4.77301L14.3188 13.2583C14.4583 13.3996 14.5365 13.5901 14.5365 13.7886C14.5365 13.9871 14.4583 14.1777 14.3188 14.3189C14.1775 14.4584 13.987 14.5366 13.7885 14.5366C13.59 14.5366 13.3995 14.4584 13.2582 14.3189Z" fill="#6F91EE"/>
<path d="M13.2582 14.3189L4.77289 5.83367C4.63345 5.69237 4.55527 5.50185 4.55527 5.30334C4.55527 5.10482 4.63345 4.9143 4.77289 4.77301C4.91419 4.63357 5.10471 4.55538 5.30322 4.55538C5.50173 4.55538 5.69226 4.63357 5.83355 4.77301L14.3188 13.2583C14.4583 13.3996 14.5365 13.5901 14.5365 13.7886C14.5365 13.9871 14.4583 14.1777 14.3188 14.3189C14.1775 14.4584 13.987 14.5366 13.7885 14.5366C13.59 14.5366 13.3995 14.4584 13.2582 14.3189Z" fill="#545454"/>
<path d="M4.77296 14.3189C4.63352 14.1777 4.55534 13.9871 4.55534 13.7886C4.55534 13.5901 4.63352 13.3996 4.77296 13.2583L13.2582 4.77301C13.3995 4.63357 13.5901 4.55538 13.7886 4.55538C13.9871 4.55538 14.1776 4.63357 14.3189 4.77301C14.4583 4.9143 14.5365 5.10482 14.5365 5.30334C14.5365 5.50185 14.4583 5.69237 14.3189 5.83367L5.83362 14.3189C5.69233 14.4584 5.50181 14.5366 5.30329 14.5366C5.10478 14.5366 4.91426 14.4584 4.77296 14.3189Z" fill="#6F91EE"/>
<path d="M4.77296 14.3189C4.63352 14.1777 4.55534 13.9871 4.55534 13.7886C4.55534 13.5901 4.63352 13.3996 4.77296 13.2583L13.2582 4.77301C13.3995 4.63357 13.5901 4.55538 13.7886 4.55538C13.9871 4.55538 14.1776 4.63357 14.3189 4.77301C14.4583 4.9143 14.5365 5.10482 14.5365 5.30334C14.5365 5.50185 14.4583 5.69237 14.3189 5.83367L5.83362 14.3189C5.69233 14.4584 5.50181 14.5366 5.30329 14.5366C5.10478 14.5366 4.91426 14.4584 4.77296 14.3189Z" fill="#545454"/>
</svg>
