<svg width="30" height="29" viewBox="0 0 30 29" fill="none" xmlns="http://www.w3.org/2000/svg">
<path d="M27.0555 15C28.2077 15 29.1575 14.0609 28.9881 12.9212C28.6946 10.946 27.9847 9.04711 26.8966 7.35394C25.4307 5.07317 23.3402 3.26181 20.874 2.13562C18.4078 1.00943 15.6698 0.615889 12.9862 1.00187C10.3027 1.38784 7.78658 2.53707 5.73772 4.31266C3.68886 6.08824 2.19356 8.41535 1.42995 11.0168C0.666333 13.6182 0.666585 16.3843 1.43067 18.9856C2.19476 21.5869 3.69048 23.9137 5.73967 25.6889C7.26092 27.0068 9.03958 27.9794 10.953 28.5508C12.057 28.8805 13.1216 28.0739 13.2854 26.9334C13.4492 25.7929 12.6445 24.7558 11.5629 24.3586C10.436 23.9448 9.38766 23.3288 8.47167 22.5353C7.02707 21.2838 5.97264 19.6435 5.43399 17.8097C4.89533 15.9759 4.89515 14.0259 5.43347 12.192C5.97179 10.358 7.02592 8.71752 8.4703 7.4658C9.91467 6.21407 11.6884 5.40391 13.5802 5.13181C15.4721 4.85971 17.4022 5.13714 19.1408 5.93106C20.8794 6.72499 22.3532 8.00193 23.3865 9.60979C24.0417 10.6293 24.5024 11.7546 24.7518 12.9289C24.9911 14.0559 25.9033 15 27.0555 15Z" fill="#6F91EE"/>
</svg>
