<svg width="92" height="92" viewBox="0 0 92 92" fill="none" xmlns="http://www.w3.org/2000/svg">
<rect width="92" height="92" rx="46" fill="#F4C967"/>
<path d="M57.7763 43.6977C57.3908 43.6951 57.0219 43.5409 56.7493 43.2683C56.4767 42.9957 56.3224 42.6268 56.3199 42.2413V38.3576C56.3199 32.2407 54.5916 28.1628 46.1251 28.1628C37.6586 28.1628 35.9304 32.2407 35.9304 38.3576V42.2413C35.9278 42.6268 35.7736 42.9957 35.501 43.2683C35.2284 43.5409 34.8594 43.6951 34.474 43.6977C34.0885 43.6951 33.7195 43.5409 33.447 43.2683C33.1744 42.9957 33.0201 42.6268 33.0176 42.2413V38.3576C33.0176 32.7262 34.3769 25.25 46.1251 25.25C57.8734 25.25 59.2327 32.7262 59.2327 38.3576V42.2413C59.2302 42.6268 59.0759 42.9957 58.8033 43.2683C58.5307 43.5409 58.1618 43.6951 57.7763 43.6977Z" fill="white"/>
<path d="M46.125 60.2035C44.8768 60.2035 43.6566 59.8334 42.6188 59.1399C41.5809 58.4464 40.772 57.4608 40.2944 56.3076C39.8167 55.1544 39.6917 53.8855 39.9352 52.6612C40.1787 51.437 40.7798 50.3125 41.6624 49.4299C42.545 48.5473 43.6696 47.9462 44.8938 47.7027C46.118 47.4592 47.387 47.5842 48.5401 48.0618C49.6933 48.5395 50.679 49.3484 51.3725 50.3862C52.0659 51.4241 52.4361 52.6443 52.4361 53.8925C52.433 55.5653 51.7671 57.1688 50.5842 58.3517C49.4013 59.5345 47.7979 60.2004 46.125 60.2035ZM46.125 50.4942C45.4529 50.4942 44.7959 50.6935 44.237 51.0669C43.6782 51.4403 43.2426 51.9711 42.9854 52.592C42.7282 53.213 42.6609 53.8962 42.7921 54.5554C42.9232 55.2146 43.2468 55.8201 43.7221 56.2954C44.1973 56.7707 44.8029 57.0943 45.462 57.2254C46.1212 57.3566 46.8045 57.2893 47.4255 57.0321C48.0464 56.7748 48.5772 56.3393 48.9506 55.7804C49.324 55.2216 49.5233 54.5646 49.5233 53.8925C49.5192 52.9925 49.1598 52.1305 48.5234 51.4941C47.887 50.8576 47.025 50.4983 46.125 50.4942Z" fill="white"/>
<path d="M55.8343 67H36.4157C27.8521 67 25.25 64.3979 25.25 55.8343V51.9506C25.25 43.387 27.8521 40.7849 36.4157 40.7849H55.8343C64.3979 40.7849 67 43.387 67 51.9506V55.8343C67 64.3979 64.3979 67 55.8343 67ZM36.4157 43.6977C29.4638 43.6977 28.1628 45.0182 28.1628 51.9506V55.8343C28.1628 62.7668 29.4638 64.0872 36.4157 64.0872H55.8343C62.7862 64.0872 64.0872 62.7668 64.0872 55.8343V51.9506C64.0872 45.0182 62.7862 43.6977 55.8343 43.6977H36.4157Z" fill="white"/>
</svg>
